<svg width="152" height="19" viewBox="0 0 152 19" fill="none" xmlns="http://www.w3.org/2000/svg">
    <path
            d="M0.42 15V0.899999H6.88C8.38667 0.899999 9.54667 1.22667 10.36 1.88C11.1867 2.53333 11.6 3.42667 11.6 4.56C11.6 5.4 11.36 6.11333 10.88 6.7C10.4 7.28667 9.74 7.68 8.9 7.88V7.56C9.55333 7.66667 10.1067 7.87333 10.56 8.18C11.0133 8.48667 11.36 8.88 11.6 9.36C11.8533 9.84 11.98 10.3933 11.98 11.02C11.98 11.8467 11.78 12.56 11.38 13.16C10.9933 13.76 10.4333 14.22 9.7 14.54C8.98 14.8467 8.11333 15 7.1 15H0.42ZM3.38 12.7H6.68C7 12.7 7.28667 12.6733 7.54 12.62C7.79333 12.5667 8.00667 12.4933 8.18 12.4C8.36667 12.3067 8.52 12.1867 8.64 12.04C8.76 11.88 8.84667 11.7 8.9 11.5C8.96667 11.3 9 11.08 9 10.84C9 10.5867 8.96667 10.3667 8.9 10.18C8.84667 9.98 8.76 9.80667 8.64 9.66C8.52 9.51333 8.36667 9.39333 8.18 9.3C8.00667 9.19333 7.79333 9.12 7.54 9.08C7.28667 9.02667 7 9 6.68 9H3.38V12.7ZM3.38 6.7H6.34C7.11333 6.7 7.68667 6.55333 8.06 6.26C8.43333 5.96667 8.62 5.52667 8.62 4.94C8.62 4.36667 8.43333 3.93333 8.06 3.64C7.68667 3.34667 7.11333 3.2 6.34 3.2H3.38V6.7ZM17.6863 15.22C16.8596 15.22 16.1729 15.0667 15.6263 14.76C15.0796 14.4533 14.6729 13.9933 14.4063 13.38C14.1529 12.7533 14.0263 11.98 14.0263 11.06V5.18H17.0463V11.14C17.0463 11.5267 17.0996 11.8533 17.2063 12.12C17.3129 12.3733 17.4729 12.5667 17.6863 12.7C17.9129 12.82 18.1996 12.88 18.5463 12.88C18.9329 12.88 19.2729 12.7933 19.5663 12.62C19.8596 12.4333 20.0863 12.1733 20.2463 11.84C20.4196 11.5067 20.5063 11.1133 20.5063 10.66V5.18H23.5263V15H20.5863V13.08H20.8863C20.5929 13.76 20.1729 14.2867 19.6263 14.66C19.0796 15.0333 18.4329 15.22 17.6863 15.22ZM29.6831 15.22C28.8298 15.22 28.0765 15.0133 27.4231 14.6C26.7831 14.1867 26.2831 13.5933 25.9231 12.82C25.5631 12.0467 25.3831 11.1333 25.3831 10.08C25.3831 9.02667 25.5631 8.12 25.9231 7.36C26.2831 6.6 26.7831 6.01333 27.4231 5.6C28.0765 5.18667 28.8298 4.98 29.6831 4.98C30.4565 4.98 31.1365 5.16667 31.7231 5.54C32.3231 5.91333 32.7298 6.4 32.9431 7H32.7231V0.899999H35.7431V15H32.7831V13.06H32.9631C32.7765 13.7133 32.3765 14.24 31.7631 14.64C31.1631 15.0267 30.4698 15.22 29.6831 15.22ZM30.5831 12.96C31.2365 12.96 31.7631 12.7267 32.1631 12.26C32.5631 11.78 32.7631 11.0533 32.7631 10.08C32.7631 9.10667 32.5631 8.39333 32.1631 7.94C31.7631 7.47333 31.2365 7.24 30.5831 7.24C29.9431 7.24 29.4231 7.47333 29.0231 7.94C28.6231 8.39333 28.4231 9.10667 28.4231 10.08C28.4231 11.0533 28.6231 11.78 29.0231 12.26C29.4231 12.7267 29.9431 12.96 30.5831 12.96ZM42.7902 18.82C41.8568 18.82 40.9768 18.72 40.1502 18.52C39.3235 18.32 38.6035 18.0067 37.9902 17.58L38.8102 15.52C39.1702 15.7333 39.5568 15.92 39.9702 16.08C40.3968 16.24 40.8302 16.36 41.2702 16.44C41.7102 16.52 42.1302 16.56 42.5302 16.56C43.3835 16.56 44.0235 16.3667 44.4502 15.98C44.8768 15.5933 45.0902 15 45.0902 14.2V12.68H45.2702C45.0702 13.2933 44.6568 13.7933 44.0302 14.18C43.4035 14.5667 42.7102 14.76 41.9502 14.76C41.0702 14.76 40.3035 14.56 39.6502 14.16C38.9968 13.7467 38.4902 13.1733 38.1302 12.44C37.7702 11.6933 37.5902 10.8333 37.5902 9.86C37.5902 8.87333 37.7702 8.02 38.1302 7.3C38.4902 6.56667 38.9968 6 39.6502 5.6C40.3035 5.18667 41.0702 4.98 41.9502 4.98C42.7368 4.98 43.4302 5.17333 44.0302 5.56C44.6435 5.93333 45.0502 6.42667 45.2502 7.04H45.0902V5.18H48.0302V13.86C48.0302 14.9533 47.8302 15.8667 47.4302 16.6C47.0302 17.3467 46.4368 17.9 45.6502 18.26C44.8768 18.6333 43.9235 18.82 42.7902 18.82ZM42.8502 12.5C43.5168 12.5 44.0502 12.2667 44.4502 11.8C44.8635 11.3333 45.0702 10.6867 45.0702 9.86C45.0702 9.03333 44.8635 8.39333 44.4502 7.94C44.0502 7.47333 43.5168 7.24 42.8502 7.24C42.1702 7.24 41.6302 7.47333 41.2302 7.94C40.8302 8.39333 40.6302 9.03333 40.6302 9.86C40.6302 10.6867 40.8302 11.3333 41.2302 11.8C41.6302 12.2667 42.1702 12.5 42.8502 12.5ZM55.4748 15.22C54.3148 15.22 53.3148 15.0133 52.4748 14.6C51.6482 14.1733 51.0082 13.58 50.5548 12.82C50.1148 12.0467 49.8948 11.14 49.8948 10.1C49.8948 9.08667 50.1082 8.2 50.5348 7.44C50.9615 6.66667 51.5548 6.06667 52.3148 5.64C53.0882 5.2 53.9615 4.98 54.9348 4.98C55.8948 4.98 56.7215 5.18667 57.4148 5.6C58.1082 6 58.6415 6.57333 59.0148 7.32C59.4015 8.06667 59.5948 8.95333 59.5948 9.98V10.74H52.3748V9.18H57.4148L57.0948 9.46C57.0948 8.64667 56.9148 8.03333 56.5548 7.62C56.2082 7.19333 55.7082 6.98 55.0548 6.98C54.5615 6.98 54.1415 7.09333 53.7948 7.32C53.4482 7.54667 53.1815 7.87333 52.9948 8.3C52.8082 8.72667 52.7148 9.24 52.7148 9.84V10C52.7148 10.68 52.8148 11.24 53.0148 11.68C53.2282 12.1067 53.5415 12.4267 53.9548 12.64C54.3815 12.8533 54.9082 12.96 55.5348 12.96C56.0682 12.96 56.6082 12.88 57.1548 12.72C57.7015 12.56 58.1948 12.3133 58.6348 11.98L59.4348 14C58.9415 14.3733 58.3348 14.6733 57.6148 14.9C56.9082 15.1133 56.1948 15.22 55.4748 15.22ZM66.1128 15.22C64.7128 15.22 63.6728 14.88 62.9928 14.2C62.3128 13.52 61.9728 12.52 61.9728 11.2V7.44H60.1128V5.18H61.9728V2.3H64.9928V5.18H67.8928V7.44H64.9928V11.08C64.9928 11.64 65.1195 12.06 65.3728 12.34C65.6395 12.62 66.0595 12.76 66.6328 12.76C66.8061 12.76 66.9861 12.74 67.1728 12.7C67.3728 12.66 67.5861 12.6067 67.8128 12.54L68.2528 14.74C67.9728 14.8867 67.6395 15 67.2528 15.08C66.8661 15.1733 66.4861 15.22 66.1128 15.22Z"
            fill="#4880FF"/>
    <path
            d="M69.6388 15V0.899999H79.1588V3.32H72.7388V6.76H78.7188V9.18H72.7388V15H69.6388ZM85.173 15.22C84.1196 15.22 83.1996 15.0133 82.413 14.6C81.6396 14.1867 81.0396 13.5933 80.613 12.82C80.1863 12.0467 79.973 11.1333 79.973 10.08C79.973 9.02667 80.1863 8.12 80.613 7.36C81.0396 6.6 81.6396 6.01333 82.413 5.6C83.1996 5.18667 84.1196 4.98 85.173 4.98C86.2263 4.98 87.1396 5.18667 87.913 5.6C88.6996 6.01333 89.3063 6.60667 89.733 7.38C90.173 8.14 90.393 9.04 90.393 10.08C90.393 11.1333 90.173 12.0467 89.733 12.82C89.3063 13.5933 88.6996 14.1867 87.913 14.6C87.1396 15.0133 86.2263 15.22 85.173 15.22ZM85.173 12.96C85.8263 12.96 86.353 12.7267 86.753 12.26C87.153 11.78 87.353 11.0533 87.353 10.08C87.353 9.10667 87.153 8.39333 86.753 7.94C86.353 7.47333 85.8263 7.24 85.173 7.24C84.533 7.24 84.013 7.47333 83.613 7.94C83.213 8.39333 83.013 9.10667 83.013 10.08C83.013 11.0533 83.213 11.78 83.613 12.26C84.013 12.7267 84.533 12.96 85.173 12.96ZM95.8903 15.22C94.6236 15.22 93.697 14.8933 93.1103 14.24C92.5236 13.5733 92.2303 12.5867 92.2303 11.28V0.899999H95.2503V11.16C95.2503 11.4933 95.3036 11.7867 95.4103 12.04C95.517 12.28 95.6703 12.46 95.8703 12.58C96.0836 12.7 96.3503 12.76 96.6703 12.76C96.8036 12.76 96.9436 12.7533 97.0903 12.74C97.237 12.7267 97.377 12.7 97.5103 12.66L97.4703 15C97.217 15.0667 96.957 15.12 96.6903 15.16C96.437 15.2 96.1703 15.22 95.8903 15.22ZM102.55 15.22C101.284 15.22 100.357 14.8933 99.7705 14.24C99.1838 13.5733 98.8905 12.5867 98.8905 11.28V0.899999H101.91V11.16C101.91 11.4933 101.964 11.7867 102.07 12.04C102.177 12.28 102.33 12.46 102.53 12.58C102.744 12.7 103.01 12.76 103.33 12.76C103.464 12.76 103.604 12.7533 103.75 12.74C103.897 12.7267 104.037 12.7 104.17 12.66L104.13 15C103.877 15.0667 103.617 15.12 103.35 15.16C103.097 15.2 102.83 15.22 102.55 15.22ZM110.173 15.22C109.12 15.22 108.2 15.0133 107.413 14.6C106.64 14.1867 106.04 13.5933 105.613 12.82C105.186 12.0467 104.973 11.1333 104.973 10.08C104.973 9.02667 105.186 8.12 105.613 7.36C106.04 6.6 106.64 6.01333 107.413 5.6C108.2 5.18667 109.12 4.98 110.173 4.98C111.226 4.98 112.14 5.18667 112.913 5.6C113.7 6.01333 114.306 6.60667 114.733 7.38C115.173 8.14 115.393 9.04 115.393 10.08C115.393 11.1333 115.173 12.0467 114.733 12.82C114.306 13.5933 113.7 14.1867 112.913 14.6C112.14 15.0133 111.226 15.22 110.173 15.22ZM110.173 12.96C110.826 12.96 111.353 12.7267 111.753 12.26C112.153 11.78 112.353 11.0533 112.353 10.08C112.353 9.10667 112.153 8.39333 111.753 7.94C111.353 7.47333 110.826 7.24 110.173 7.24C109.533 7.24 109.013 7.47333 108.613 7.94C108.213 8.39333 108.013 9.10667 108.013 10.08C108.013 11.0533 108.213 11.78 108.613 12.26C109.013 12.7267 109.533 12.96 110.173 12.96ZM119.776 15L115.776 5.18H118.836L121.416 12.08H120.956L123.516 5.18H125.516L128.056 12.08H127.676L130.196 5.18H133.096L129.136 15H126.576L123.756 7.72H125.056L122.316 15H119.776ZM139.088 15.22C137.928 15.22 136.928 15.0133 136.088 14.6C135.261 14.1733 134.621 13.58 134.168 12.82C133.728 12.0467 133.508 11.14 133.508 10.1C133.508 9.08667 133.721 8.2 134.148 7.44C134.575 6.66667 135.168 6.06667 135.928 5.64C136.701 5.2 137.575 4.98 138.548 4.98C139.508 4.98 140.335 5.18667 141.028 5.6C141.721 6 142.255 6.57333 142.628 7.32C143.015 8.06667 143.208 8.95333 143.208 9.98V10.74H135.988V9.18H141.028L140.708 9.46C140.708 8.64667 140.528 8.03333 140.168 7.62C139.821 7.19333 139.321 6.98 138.668 6.98C138.175 6.98 137.755 7.09333 137.408 7.32C137.061 7.54667 136.795 7.87333 136.608 8.3C136.421 8.72667 136.328 9.24 136.328 9.84V10C136.328 10.68 136.428 11.24 136.628 11.68C136.841 12.1067 137.155 12.4267 137.568 12.64C137.995 12.8533 138.521 12.96 139.148 12.96C139.681 12.96 140.221 12.88 140.768 12.72C141.315 12.56 141.808 12.3133 142.248 11.98L143.048 14C142.555 14.3733 141.948 14.6733 141.228 14.9C140.521 15.1133 139.808 15.22 139.088 15.22ZM144.965 15V5.18H147.925V7.58H147.725C147.885 6.78 148.231 6.16667 148.765 5.74C149.311 5.3 150.031 5.04667 150.925 4.98L151.805 4.92L151.985 7.46L150.285 7.64C149.525 7.70667 148.958 7.92667 148.585 8.3C148.225 8.67333 148.045 9.21333 148.045 9.92V15H144.965Z"
            fill="currentColor"/>
</svg>
